<svg width="60" height="60" viewBox="0 0 60 60" fill="none" xmlns="http://www.w3.org/2000/svg">
<path d="M27.2855 29C27.2855 28.4477 26.8378 28 26.2855 28H25.8241C25.6324 28 25.4448 28.0551 25.2836 28.1587L23.3275 29.4153C23.1234 29.5464 23 29.7724 23 30.015C23 30.5779 23.622 30.9187 24.0964 30.6156L25.37 29.802C25.3774 29.7973 25.3861 29.7947 25.3949 29.7947C25.4204 29.7947 25.4411 29.8154 25.4411 29.8409V37.2596C25.4411 37.7689 25.8539 38.1818 26.3633 38.1818C26.8726 38.1818 27.2855 37.7689 27.2855 37.2596V29Z" fill="white"/>
<path d="M31.3507 37.9482C31.8744 38.1967 32.4676 38.321 33.1305 38.321C33.8497 38.321 34.4828 38.1719 35.0297 37.8736C35.5798 37.572 36.0091 37.1593 36.3173 36.6357C36.6289 36.1087 36.7846 35.5088 36.7846 34.8359C36.7846 34.183 36.6454 33.603 36.367 33.0959C36.0886 32.5888 35.7075 32.1911 35.2236 31.9027C34.7396 31.611 34.1895 31.4652 33.573 31.4652C33.162 31.4652 32.7842 31.5398 32.4395 31.6889C32.1016 31.8318 31.8386 32.0114 31.6504 32.2275C31.6431 32.2359 31.6326 32.2408 31.6215 32.2408C31.599 32.2408 31.5815 32.2212 31.5839 32.1988L31.7758 30.4332C31.8309 29.9257 32.2595 29.5412 32.7699 29.5412H35.4821C35.9077 29.5412 36.2527 29.1962 36.2527 28.7706C36.2527 28.345 35.9077 28 35.4821 28H31.2502C30.737 28 30.307 28.3886 30.2553 28.8992L29.9092 32.3147C29.856 32.8403 30.2208 33.3167 30.7421 33.4023L30.9447 33.4356C31.2786 33.4904 31.6112 33.357 31.9074 33.1936C31.9919 33.1471 32.083 33.1046 32.1809 33.0661C32.4759 32.95 32.7759 32.8937 33.0808 32.897C33.4553 32.897 33.7868 32.9832 34.0751 33.1555C34.3635 33.3246 34.5905 33.5582 34.7562 33.8565C34.9219 34.1548 35.0031 34.4962 34.9998 34.8807C35.0031 35.2585 34.9236 35.5949 34.7612 35.8899C34.5988 36.1849 34.3767 36.4152 34.095 36.581C33.8133 36.7467 33.4918 36.8295 33.1305 36.8295C32.6698 36.8295 32.2754 36.6986 31.9473 36.4368C31.853 36.3606 31.7709 36.2782 31.701 36.1894C31.4062 35.8153 31.0381 35.4126 30.5617 35.4126C30.0447 35.4126 29.6127 35.8537 29.7968 36.3369C29.8743 36.5401 29.9763 36.7325 30.1028 36.9141C30.4111 37.3516 30.827 37.6963 31.3507 37.9482Z" fill="white"/>
<path fill-rule="evenodd" clip-rule="evenodd" d="M23 14C22.4477 14 22 14.4477 22 15V16H18C15.7909 16 14 17.7909 14 20V42C14 44.2091 15.7909 46 18 46H42C44.2091 46 46 44.2091 46 42V20C46 17.7909 44.2091 16 42 16H38V15C38 14.4477 37.5523 14 37 14C36.4477 14 36 14.4477 36 15V16H24V15C24 14.4477 23.5523 14 23 14ZM42 18C43.1046 18 44 18.8954 44 20V21H16V20C16 18.8954 16.8954 18 18 18H42ZM44 42V22.5H16V42C16 43.1046 16.8954 44 18 44H42C43.1046 44 44 43.1046 44 42Z" fill="white"/>
</svg>
